<?xml version="1.0" encoding="UTF-8" standalone="no"?>
<svg
   id="Athene_revised"
   viewBox="0 0 121.57 45.979999"
   version="1.1"
   sodipodi:docname="tuda_logo.svg"
   inkscape:version="1.4 (e7c3feb1, 2024-10-09)"
   width="121.57"
   height="45.98"
   xmlns:inkscape="http://www.inkscape.org/namespaces/inkscape"
   xmlns:sodipodi="http://sodipodi.sourceforge.net/DTD/sodipodi-0.dtd"
   xmlns="http://www.w3.org/2000/svg"
   xmlns:svg="http://www.w3.org/2000/svg">
  <sodipodi:namedview
     id="namedview8"
     pagecolor="#ffffff"
     bordercolor="#000000"
     borderopacity="0.25"
     inkscape:showpageshadow="2"
     inkscape:pageopacity="0.0"
     inkscape:pagecheckerboard="0"
     inkscape:deskcolor="#d1d1d1"
     inkscape:zoom="6.7731382"
     inkscape:cx="64.224291"
     inkscape:cy="23.105981"
     inkscape:window-width="1920"
     inkscape:window-height="934"
     inkscape:window-x="0"
     inkscape:window-y="25"
     inkscape:window-maximized="0"
     inkscape:current-layer="Athene_revised" />
  <defs
     id="defs1">
    <style
       id="style1">.cls-1{fill:#000;}.cls-1,.cls-2{stroke-width:0px;}.cls-2{fill:#fff;}</style>
  </defs>
  <path
     class="cls-1"
     d="M 47.63,5.61 V 6.36 H 50 v 7.33 h 0.89 V 6.36 h 2.39 V 5.61 Z m 7.46,0 v 8.08 h 4.39 V 12.94 H 55.99 V 9.88 h 3.16 V 9.13 H 55.99 V 6.36 h 3.49 V 5.61 Z m 10.35,0.51 c 0.77,0 1.46,0.16 2.09,0.58 l 0.34,-0.65 c -0.76,-0.4 -1.51,-0.61 -2.44,-0.61 -2.39,0 -4.27,1.72 -4.27,4.18 0,2.63 1.88,4.18 4.27,4.18 0.82,0 1.68,-0.32 2.4,-0.72 L 67.51,12.5 c -0.63,0.35 -1.36,0.61 -2.08,0.61 -1.96,0 -3.35,-1.56 -3.35,-3.5 0,-1.94 1.38,-3.5 3.35,-3.5 v 0 z m 4.48,-0.51 v 8.08 h 0.9 V 9.82 h 4.4 v 3.87 h 0.9 V 5.61 h -0.9 v 3.47 h -4.4 V 5.61 Z M 79.94,5.43 79,5.67 v 8.02 h 0.86 V 6.76 c 0,0 4.74,7.11 4.74,7.11 l 0.95,-0.26 V 5.62 h -0.84 l -0.02,6.93 -4.77,-7.12 v 0 z m 8.9,0.18 v 8.08 h 0.9 V 5.61 Z m 5.5,7.59 c -0.63,0 -1.27,-0.27 -1.72,-0.57 l -0.36,0.59 c 0.65,0.39 1.3,0.6 2.14,0.6 1.76,0 2.57,-1.1 2.57,-2.28 0,-1.18 -0.87,-1.75 -1.8,-2.19 L 94.49,9.02 C 93.9,8.72 93.28,8.34 93.28,7.58 c 0,-1.05 0.86,-1.52 1.6,-1.52 0.74,0 1.25,0.27 1.71,0.57 L 96.9,6.04 C 96.28,5.68 95.59,5.45 94.83,5.45 c -1.42,0 -2.41,0.86 -2.41,2.07 0,1.69 1.24,1.99 2.43,2.57 0.65,0.32 1.19,0.71 1.19,1.54 0,0.97 -0.71,1.58 -1.71,1.58 v 0 z m 8.87,-7.08 c 0.77,0 1.46,0.16 2.09,0.58 l 0.34,-0.65 c -0.76,-0.4 -1.51,-0.61 -2.44,-0.61 -2.39,0 -4.27,1.72 -4.27,4.18 0,2.63 1.88,4.18 4.27,4.18 0.82,0 1.68,-0.32 2.4,-0.72 l -0.32,-0.58 c -0.63,0.35 -1.36,0.61 -2.08,0.61 -1.96,0 -3.35,-1.56 -3.35,-3.5 0,-1.94 1.39,-3.5 3.35,-3.5 v 0 z m 4.75,-0.51 v 8.08 h 0.9 V 9.82 h 4.4 v 3.87 h 0.9 V 5.61 h -0.9 v 3.47 h -4.4 V 5.61 Z m 9.09,0 v 8.08 h 4.4 v -0.75 h -3.49 V 9.88 h 3.16 V 9.13 h -3.16 V 6.36 h 3.49 V 5.61 Z M 54.84,24.28 v -5.3 h -0.9 v 5.17 c 0,1.81 -0.87,2.38 -2.27,2.38 -1.53,0 -2.17,-0.83 -2.17,-2.38 v -5.17 h -0.93 l 0.02,5.38 c 0,1.84 1.08,2.84 3.08,2.84 1.52,0 3.17,-0.49 3.17,-2.92 z m 3.49,-5.48 -0.94,0.24 v 8.02 h 0.86 v -6.93 c 0,0 4.74,7.11 4.74,7.11 l 0.95,-0.26 V 18.99 H 63.1 l -0.02,6.93 -4.77,-7.11 v 0 z m 8.46,0.18 v 8.08 h 0.9 v -8.08 z m 3.53,-0.13 -0.88,0.28 3.08,7.93 h 0.89 l 3.1,-7.92 -0.86,-0.29 -2.67,7.25 -2.68,-7.25 v 0 z m 7.95,0.13 v 8.08 h 4.39 v -0.75 h -3.49 v -3.06 h 3.15 V 22.5 h -3.15 v -2.78 h 3.49 v -0.75 h -4.39 z m 8.49,3.94 h -1.08 v -3.24 h 1.3 c 1.39,0 1.81,0.68 1.81,1.61 0,1.29 -1.01,1.63 -2.03,1.63 z m 0.46,-3.94 h -2.44 c 0,0 0,8.08 0,8.08 h 0.91 v -3.48 h 0.74 c 0.6,0 0.9,0.22 1.26,0.65 l 0.35,0.44 1.9,2.58 0.79,-0.47 -1.6,-2.12 c -0.31,-0.39 -0.74,-1.15 -1.26,-1.27 v -0.17 c 1.12,-0.15 1.77,-0.8 1.77,-2.1 0,-1.31 -0.89,-2.16 -2.41,-2.16 v 0 z m 6.72,7.64 c -0.63,0 -1.27,-0.27 -1.72,-0.57 l -0.36,0.59 c 0.65,0.39 1.3,0.6 2.14,0.6 1.76,0 2.57,-1.1 2.57,-2.28 0,-1.18 -0.87,-1.75 -1.8,-2.19 L 94.09,22.44 C 93.5,22.14 92.88,21.76 92.88,21 c 0,-1.05 0.86,-1.52 1.6,-1.52 0.74,0 1.25,0.27 1.71,0.57 l 0.31,-0.59 c -0.62,-0.36 -1.31,-0.59 -2.07,-0.59 -1.42,0 -2.41,0.86 -2.41,2.07 0,1.69 1.24,1.99 2.43,2.57 0.65,0.32 1.19,0.71 1.19,1.54 0,0.97 -0.71,1.58 -1.71,1.58 v 0 z M 99,18.98 v 8.08 h 0.9 v -8.08 z m 2.67,0 v 0.75 h 2.37 v 7.34 h 0.89 v -7.34 h 2.39 v -0.75 z m 9.75,0.81 1.49,4 h -3.02 z m 3.67,7.17 -3.2,-7.99 h -0.95 l -3.29,7.99 0.89,0.31 1.09,-2.83 h 3.52 l 1.05,2.84 z m -1.34,-8.49 h -0.81 v 1.06 h 0.81 z m -3.83,1.05 v -1.06 h -0.8 v 1.06 z m 6,-0.54 v 0.75 h 2.37 v 7.34 h 0.89 v -7.34 h 2.39 V 18.98 Z M 50.67,39.73 h -1.18 v -6.68 h 1.36 c 2.24,0 3.71,1.15 3.71,3.29 0,2.14 -1.5,3.39 -3.9,3.39 v 0 z m 0.38,-7.39 h -2.47 v 8.08 h 2.19 c 2.8,0 4.65,-1.42 4.65,-4.15 0,-1.98 -1.13,-3.93 -4.38,-3.93 v 0 z m 9.39,0.82 1.49,4 h -3.02 z m 3.67,7.17 -3.2,-7.99 h -0.95 l -3.29,7.99 0.89,0.31 1.09,-2.83 h 3.52 l 1.05,2.84 z m 4.14,-4.05 h -1.08 v -3.24 h 1.3 c 1.39,0 1.81,0.68 1.81,1.61 0,1.29 -1.01,1.63 -2.03,1.63 z m 0.45,-3.93 h -2.44 c 0,0 0,8.08 0,8.08 h 0.91 v -3.48 h 0.74 c 0.6,0 0.9,0.22 1.26,0.65 l 0.35,0.45 1.9,2.58 0.79,-0.47 -1.6,-2.12 C 70.3,37.65 69.87,36.89 69.35,36.77 V 36.6 c 1.12,-0.15 1.77,-0.8 1.77,-2.1 0,-1.32 -0.89,-2.16 -2.41,-2.16 v 0 z m 8.48,0 h -0.99 l -2.26,7.99 0.87,0.23 1.9,-7.02 2.05,6.87 h 1.01 l 2.08,-6.89 1.88,7.03 0.86,-0.23 -2.25,-7.99 h -0.99 l -2.09,7.04 -2.08,-7.04 v 0 z m 11.26,7.61 c -0.63,0 -1.27,-0.27 -1.72,-0.57 l -0.36,0.59 c 0.65,0.39 1.3,0.6 2.14,0.6 1.76,0 2.57,-1.1 2.57,-2.28 0,-1.18 -0.87,-1.75 -1.8,-2.19 L 88.59,35.78 C 88,35.48 87.38,35.1 87.38,34.34 c 0,-1.05 0.86,-1.52 1.6,-1.52 0.74,0 1.25,0.27 1.71,0.57 L 91,32.8 c -0.62,-0.36 -1.31,-0.59 -2.07,-0.59 -1.42,0 -2.41,0.86 -2.41,2.07 0,1.69 1.24,1.99 2.43,2.57 0.65,0.32 1.19,0.71 1.19,1.54 0,0.97 -0.71,1.58 -1.71,1.58 v 0 z m 4.14,-7.61 v 0.75 h 2.37 v 7.33 h 0.89 V 33.1 h 2.39 v -0.75 z m 9.85,0.81 1.49,4 h -3.02 z m 3.67,7.17 -3.2,-7.99 h -0.95 l -3.29,7.99 0.89,0.31 1.09,-2.83 h 3.52 l 1.05,2.84 z m 3.94,-0.6 h -1.18 v -6.68 h 1.37 c 2.24,0 3.71,1.15 3.71,3.29 0,2.12 -1.5,3.39 -3.9,3.39 z m 0.37,-7.39 h -2.47 v 8.08 h 2.19 c 2.8,0 4.65,-1.42 4.65,-4.15 0,-1.98 -1.13,-3.93 -4.38,-3.93 v 0 z m 5.48,0.01 v 0.75 h 2.37 v 7.33 h 0.89 V 33.1 h 2.39 v -0.75 z"
     id="path1" />
  <path
     class="cls-1"
     d="m 20.49,32.44 c -0.66,0 -1.19,0.54 -1.19,1.19 0,0.65 0.54,1.19 1.19,1.19 0.65,0 1.19,-0.54 1.19,-1.19 0,-0.65 -0.54,-1.19 -1.19,-1.19 z m 0.74,1.19 c 0,0.41 -0.33,0.74 -0.74,0.74 -0.41,0 -0.74,-0.33 -0.74,-0.74 0,-0.41 0.33,-0.74 0.74,-0.74 0.41,0 0.74,0.33 0.74,0.74 z"
     id="path2" />
  <path
     class="cls-1"
     d="m 37.59,24.6 c -0.87,-2.3 -3.65,-10.63 -4.21,-12.31 0.05,-0.03 0.11,-0.08 0.19,-0.12 0.11,-0.07 0.14,-0.15 0.1,-0.28 C 33.56,11.56 31.7,6.12 31.65,5.97 31.61,5.86 31.55,5.8 31.48,5.78 31.41,5.76 31.33,5.78 31.25,5.83 30.19,6.67 29.19,7.62 28.18,8.75 27.14,8.4 26.1,8.13 25.08,7.95 25.53,7.54 26.14,7.47 27.16,7.64 27.37,7.68 27.46,7.65 27.55,7.5 28.06,6.65 31.04,1.71 31.04,1.71 31.12,1.55 31.05,1.43 30.92,1.38 28.49,0.54 25.82,0 22.98,0 16.41,0 10.41,2.92 6.19,7.58 3.66,10.37 1.68,13.84 0.69,17.76 0.24,19.52 0,21.28 0,23.32 c 0,2.93 0.63,5.83 1.79,8.53 1.04,2.41 2.54,4.67 4.4,6.71 0.09,0.1 0.25,0.1 0.34,0 0.45,-0.55 3.26,-3.9 3.26,-3.9 C 9.85,34.59 9.88,34.47 9.81,34.37 9.5,33.93 9.34,33.5 9.34,33.1 c 0,-0.35 0.1,-0.71 0.26,-1.14 0.15,0.22 0.66,0.89 1.01,1.33 0.45,0.56 0.91,1.17 1.25,1.72 -1.76,1.18 -2.54,2.54 -2.54,3.78 0,1.24 0.62,2.23 1.42,3.06 0.82,0.85 1.95,1.63 3.41,2.3 1.96,0.9 5.06,1.83 9.06,1.83 2.09,0 3.8,-0.26 5.05,-0.51 1.25,-0.26 3.3,-0.78 5.59,-1.89 0.13,-0.06 0.16,-0.13 0.16,-0.23 0,-0.05 -0.02,-0.11 -0.11,-0.18 -0.58,-0.49 -2.81,-1.18 -4.59,-1.68 0.09,-1.1 0.32,-2.21 0.67,-3.33 0.17,0 0.33,0 0.49,0 0.88,0 1.73,-0.08 2.45,-0.24 1.22,-0.26 2.26,-0.76 2.83,-1.4 0.27,-0.3 0.48,-0.74 0.48,-1.18 0,-0.64 -0.4,-1.24 -0.91,-1.77 0.27,-0.37 0.45,-0.51 0.9,-0.53 0.1,0 0.19,-0.1 0.24,-0.26 0.09,-0.27 0.02,-0.65 -0.08,-0.84 -0.11,-0.19 -0.17,-0.28 -0.32,-0.41 0.41,-0.33 0.71,-0.61 0.71,-0.96 0,-0.28 -0.18,-0.55 -0.32,-0.75 -0.28,-0.39 -0.24,-0.56 0.34,-1.12 1.17,-0.09 1.68,-0.47 1.68,-1.26 0,-0.73 -0.56,-1.94 -0.91,-2.86 z m -8.3,18.77 c 0.73,0.19 1.71,0.47 2.28,0.7 -0.68,0.25 -1.38,0.47 -2.1,0.66 -0.09,-0.42 -0.15,-0.88 -0.18,-1.36 z m 4.04,-0.04 c -0.39,0.18 -0.79,0.35 -1.19,0.52 -0.4,-0.24 -1.34,-0.55 -2.87,-0.95 0,-0.31 0,-0.62 0.02,-0.94 1.16,0.32 3.19,0.93 4.05,1.38 z m 3.42,-15.06 c -0.88,-0.21 -1.97,-0.17 -2.74,0.46 -0.19,-0.18 -0.34,-0.42 -0.34,-0.7 0,-0.27 0.17,-0.59 0.5,-0.89 0.06,-0.06 0.09,-0.13 0.07,-0.21 -0.02,-0.08 -0.08,-0.15 -0.16,-0.18 -0.07,-0.02 -0.15,0 -0.21,0.05 -0.49,0.46 -0.64,0.87 -0.64,1.22 0,0.16 0.05,0.36 0.11,0.51 0.1,0.23 0.35,0.57 0.6,0.68 0.1,0.04 0.18,0.04 0.25,-0.04 0.05,-0.05 0.25,-0.21 0.31,-0.25 0.61,-0.38 1.45,-0.33 1.77,-0.29 -0.42,0.45 -0.57,0.86 -0.16,1.43 0.18,0.24 0.25,0.34 0.25,0.42 0,0.2 -0.17,0.44 -0.71,0.83 -0.07,0 -0.14,0 -0.21,0 -0.7,0 -1.48,0.2 -2.34,0.42 -0.21,0.05 -0.38,0.09 -0.59,0.15 0.03,-0.1 0.08,-0.21 0.12,-0.3 0.06,-0.14 -0.01,-0.27 -0.15,-0.29 -0.11,-0.02 -0.19,0.05 -0.26,0.2 -0.08,0.18 -0.29,0.59 -0.19,0.87 0.03,0.1 0.11,0.16 0.2,0.16 0.09,0 0.18,-0.06 0.22,-0.16 0.22,-0.05 0.47,-0.11 0.73,-0.18 0.72,-0.19 1.52,-0.39 2.16,-0.41 0.04,0 0.26,0 0.32,0 0.33,0.17 0.46,0.47 0.41,0.83 -0.27,0.04 -0.52,0.16 -0.71,0.3 -0.26,0.19 -0.44,0.42 -0.49,0.58 -0.04,0.11 -0.02,0.21 0.05,0.27 0.58,0.54 0.89,1.09 0.89,1.59 0,0.36 -0.18,0.68 -0.36,0.9 -0.45,0.54 -1.36,0.98 -2.58,1.23 -1.42,0.3 -3.15,0.31 -4.87,0.01 -1.96,-0.33 -3.89,-1.05 -5.58,-2.07 0.47,-0.49 0.73,-1.14 0.73,-1.82 0,-0.34 -0.06,-0.67 -0.19,-0.98 0.57,-0.68 0.75,-1.67 0.45,-2.57 -0.29,-0.87 -0.94,-1.49 -1.79,-1.7 l 0.06,-0.47 c 2.63,-0.33 4.8,-2.43 5.29,-5.1 0.98,-0.66 1.7,-1.36 2.21,-2.16 1.7,-0.76 4.39,-1.36 6.36,-0.59 0.82,2.39 1.36,3.93 1.65,4.7 0.09,0.24 0.52,1.33 0.62,1.61 0.22,0.64 0.38,1.15 0.17,1.47 -0.16,0.25 -0.55,0.38 -1.21,0.43 z m -7.86,13.01 c -0.11,1.06 -0.11,2.4 0.14,3.57 -0.29,0.07 -0.56,0.13 -0.83,0.19 -2.14,-0.76 -7.71,-2.51 -10.32,-3.17 1.66,-1.81 2.24,-4.09 2.22,-5.62 0.13,0.02 0.26,0.03 0.38,0.03 0.56,0 1.1,-0.17 1.55,-0.5 2.86,1.76 5.65,2.27 7.49,2.39 -0.22,0.84 -0.49,1.77 -0.64,3.13 z m -1.58,3.92 c -0.88,0.15 -1.77,0.25 -2.67,0.3 -1.47,-0.68 -5.59,-2.03 -7.98,-2.56 0.3,-0.22 0.59,-0.46 0.86,-0.71 2.25,0.54 7.27,2.11 9.79,2.97 z M 28.35,2.29 C 28.38,2.22 28.39,2.16 28.37,2.1 28.35,2.04 28.32,2 28.27,1.97 28.22,1.94 28.15,1.93 28.09,1.95 28.04,1.97 27.98,2.02 27.94,2.09 27.89,2.18 25.58,6.65 25.58,6.65 25.28,6.57 24.97,6.51 24.66,6.45 l 2.41,-5.62 c 1.15,0.21 2.3,0.51 3.44,0.89 l -3.29,5.45 c -0.4,-0.15 -0.8,-0.28 -1.2,-0.4 L 28.34,2.29 Z M 26.62,0.75 24.21,6.37 C 23.88,6.32 23.53,6.28 23.19,6.25 c 0,0 1.3,-4.16 1.38,-4.42 0.02,-0.08 0.01,-0.16 -0.02,-0.21 -0.04,-0.07 -0.12,-0.1 -0.19,-0.1 -0.09,0 -0.18,0.05 -0.21,0.16 C 24.03,2.06 22.73,6.22 22.73,6.22 22.36,6.2 21.98,6.19 21.61,6.2 l 1.48,-5.74 c 1.17,0 2.36,0.1 3.54,0.29 z M 8.08,22.48 c -0.34,0.32 -0.6,0.62 -0.76,0.83 0,-0.62 0.03,-1.25 0.1,-1.88 z m 2.78,-5.18 c 0.4,0.67 1.01,1.2 1.51,1.58 -0.21,0.15 -0.43,0.3 -0.64,0.47 C 10.93,18.73 9.85,17.88 9.68,16.81 9.66,16.68 9.59,16.59 9.48,16.58 9.36,16.58 9.29,16.65 9.25,16.76 9,17.44 8.95,18.11 9.08,18.81 8.72,18.9 8.25,19.1 7.82,19.35 8.27,17.65 9,16.04 9.98,14.58 c 0.12,0.91 0.37,1.86 0.88,2.71 z m 13.07,-4.51 c 0,0 -0.06,0.05 -0.07,0.15 -0.03,0.23 -0.01,0.46 0.05,0.67 0.04,0.15 0.11,0.3 0.2,0.43 -0.38,0.55 -0.76,1.13 -1.16,1.75 -0.56,-0.19 -1.12,-0.33 -1.72,-0.44 0,0 1.34,-1.44 1.35,-1.46 l 1.64,-1.77 c 0,0 0.06,-0.08 0.06,-0.12 0.01,-0.07 -0.02,-0.14 -0.07,-0.19 -0.04,-0.04 -0.09,-0.07 -0.15,-0.07 -0.05,0 -0.1,0.01 -0.15,0.05 -0.25,-0.38 -0.27,-0.79 -0.05,-1.08 0.22,-0.29 0.62,-0.39 1.04,-0.26 -0.03,0.25 -0.01,0.52 0.06,0.8 0.02,0.06 0.05,0.1 0.08,0.13 0.04,0.03 0.1,0.04 0.16,0.04 0.07,0 0.14,-0.04 0.17,-0.09 0.03,-0.05 0.05,-0.11 0.03,-0.19 -0.18,-0.73 0.09,-1.16 0.41,-1.32 0.37,-0.19 0.84,-0.06 1.17,0.33 -0.42,0.51 -0.99,1.26 -1.27,1.63 -0.28,0.37 -0.7,0.96 -1.08,1.5 -0.25,-0.1 -0.36,-0.17 -0.46,-0.28 -0.05,-0.06 -0.1,-0.12 -0.15,-0.17 -0.03,-0.04 -0.06,-0.05 -0.1,-0.04 z m -6.58,9.08 c 0.48,-0.09 1,-0.17 1.51,-0.21 0.08,0.05 0.15,0.1 0.22,0.15 -0.31,0.47 -0.6,0.89 -0.88,1.31 -0.19,-0.44 -0.47,-0.87 -0.85,-1.26 z m -5.38,2.75 c 0,-1.88 1.72,-3.3 4.07,-4.09 0.64,0.2 1.57,0.5 2.1,0.75 -1.95,0.25 -3.22,0.76 -4.17,1.54 -0.6,0.5 -0.95,1.08 -0.95,1.73 0,0.85 0.5,1.5 1.3,1.5 0.8,0 1.28,-0.58 1.28,-1.25 0,-0.81 -0.66,-1.39 -1.45,-1.54 0.23,-0.21 0.61,-0.48 0.98,-0.68 0.49,0.24 0.95,0.66 1.18,1.09 0.32,0.58 0.34,1.2 0.22,1.75 -0.31,0.41 -0.6,0.79 -0.9,1.17 -0.45,0.26 -0.9,0.37 -1.24,0.37 -1.53,0 -2.41,-1.01 -2.41,-2.36 z m 2.42,2.81 c 0.22,0 0.46,-0.04 0.64,-0.09 -0.3,0.36 -0.58,0.69 -0.89,1.02 -1.56,-0.15 -2.44,-0.75 -3.01,-1.54 -0.29,-0.41 -0.55,-0.96 -0.6,-1.74 -0.14,-2.18 1.3,-4.2 3.56,-5.23 0.37,0.15 0.74,0.3 1.24,0.47 -1.09,0.43 -1.93,0.95 -2.54,1.54 -0.68,0.67 -1.28,1.62 -1.28,2.76 0,1.57 1.05,2.82 2.87,2.82 z M 9.66,20.34 c 0.12,0.22 0.25,0.44 0.4,0.68 -0.11,0.14 -0.21,0.28 -0.32,0.42 -0.15,0.04 -0.31,0.11 -0.47,0.18 L 8.83,20.73 9.65,20.33 Z M 9.5,17.65 c 0.4,0.79 1.12,1.39 1.89,1.99 C 11,19.97 10.67,20.32 10.37,20.66 10,20.1 9.71,19.49 9.58,18.95 9.48,18.51 9.45,18.13 9.5,17.66 Z m 5.65,7.15 c 0,0.52 -0.4,0.81 -0.8,0.81 -0.51,0 -0.87,-0.39 -0.87,-1.05 0,-0.31 0.12,-0.61 0.31,-0.88 0.63,0 1.37,0.42 1.37,1.12 z m 1.67,-2.81 c 0.53,0.46 0.98,1.2 1.06,1.6 -0.3,0.43 -0.56,0.8 -0.83,1.16 -0.01,-0.56 -0.18,-1.03 -0.41,-1.4 -0.3,-0.47 -0.7,-0.8 -1.01,-0.99 0.53,-0.21 0.95,-0.33 1.19,-0.38 z m -1.09,-2.03 c 0.23,0 0.5,-0.01 0.76,-0.02 1.24,-0.04 2.79,-0.1 3.73,0.11 -0.29,0.46 -0.59,0.92 -0.9,1.39 -0.08,-0.06 -0.19,-0.13 -0.3,-0.2 -0.42,-0.26 -1.1,-0.56 -1.88,-0.82 -0.28,-0.09 -1.13,-0.37 -1.42,-0.46 z m 1.04,-0.47 c -0.68,0.02 -1.87,0.08 -2.37,0 -0.99,-0.42 -1.67,-0.84 -2.25,-1.36 1.45,0.36 3.51,0.27 4.34,0.26 0.14,0 0.29,0 0.45,0 1.28,-0.02 3.01,-0.07 4.17,0.29 -0.21,0.33 -0.42,0.66 -0.63,0.99 -0.58,-0.16 -1.38,-0.2 -2.25,-0.2 -0.58,0 -1.23,0.02 -1.46,0.03 z m -8.03,0.78 c -0.22,0.11 -0.35,0.21 -0.38,0.31 -0.03,0.09 0,0.22 0.08,0.39 0.07,0.14 0.44,0.88 0.44,0.88 -0.15,0.1 -0.3,0.21 -0.46,0.33 l -0.9,-1.44 c 0.04,-0.25 0.09,-0.5 0.15,-0.75 0.55,-0.39 1.17,-0.65 1.52,-0.74 0.07,0.22 0.16,0.45 0.26,0.68 0,0 -0.41,0.2 -0.72,0.34 z m 1.84,0.83 c 0.54,-0.65 1.44,-1.46 2.2,-1.95 0.24,0.15 0.53,0.31 0.8,0.44 -2.41,1.24 -3.95,3.67 -3.37,6.26 -0.49,0.49 -0.75,0.75 -1.53,0.8 0.48,-0.7 0.43,-1.94 0.5,-2.5 0.19,-1.45 0.7,-2.19 1.41,-3.06 z m -0.97,5.81 c 0.24,-0.12 0.53,-0.32 0.77,-0.55 0.53,1.26 1.72,2.18 3.38,2.41 -0.3,0.33 -0.61,0.64 -0.9,0.93 -0.92,-0.47 -1.55,-0.78 -2.07,-1.23 -0.5,-0.44 -0.81,-0.86 -1.18,-1.56 z m 8.69,-8.99 c -0.92,0 -3,0.07 -4.17,0 C 13,17.85 12.2,17.73 11.51,17.44 11.15,16.97 10.9,16.4 10.7,15.84 c 0.64,0.56 1.6,0.88 2.64,1.04 0.77,0.12 1.61,0.15 2.47,0.15 0.04,0 0.79,0 1.16,-0.02 1.6,-0.04 3.6,-0.08 4.93,0.42 -0.18,0.28 -0.36,0.56 -0.54,0.84 C 20.48,18 19.56,17.92 18.3,17.92 Z m -2.55,-1.35 c -0.84,0 -1.62,-0.04 -2.32,-0.14 -1.28,-0.19 -2.27,-0.6 -2.92,-1.43 -0.06,-0.31 -0.1,-0.63 -0.13,-0.97 0.05,-0.07 0.11,-0.15 0.16,-0.21 0.54,0.71 1.24,1.15 1.94,1.38 0.63,0.21 1.45,0.36 3.14,0.35 1.7,-0.01 3.55,-0.08 5.1,0.16 0.78,0.12 1.36,0.26 1.98,0.46 -0.19,0.29 -0.37,0.58 -0.56,0.86 -1.04,-0.42 -2.44,-0.51 -3.76,-0.51 -0.47,0 -2.27,0.04 -2.63,0.04 z m -2.52,-5.46 c 0.28,0.49 0.63,0.88 1.17,1.24 0.44,0.29 1.03,0.46 1.48,0.46 0.19,0 0.39,-0.02 0.59,-0.07 0.32,0.34 0.72,0.61 1.16,0.78 -0.36,0.17 -0.95,0.28 -1.61,0.28 -1.02,0 -2.22,-0.29 -2.86,-1 -0.02,-0.02 -0.07,-0.06 -0.1,-0.08 -0.04,-0.03 -0.1,-0.06 -0.16,-0.08 -0.16,-0.04 -1.09,-0.29 -1.09,-0.29 0.47,-0.46 0.99,-0.9 1.4,-1.24 z m 10.2,-0.85 c 0,0.46 -0.33,0.75 -0.78,0.8 0,-0.05 0,-0.1 -0.03,-0.13 -0.04,-0.06 -0.11,-0.1 -0.18,-0.1 -0.05,0 -0.09,0 -0.13,0.03 -0.05,0.03 -0.1,0.09 -0.11,0.17 0,0.05 -0.1,0.71 -0.12,0.93 -0.1,0.03 -0.19,0.05 -0.31,0.05 -0.07,0 -0.22,-0.01 -0.33,-0.03 -0.06,-0.01 -0.11,-0.02 -0.14,0.02 -0.03,0.03 -0.02,0.09 0,0.13 0.12,0.29 0.41,0.41 0.74,0.49 -0.01,0.42 0.02,0.77 0.1,1.1 l -1.45,1.56 c -0.16,-0.02 -0.33,-0.04 -0.49,-0.06 0,0 1.01,-4.08 1.04,-4.23 0.01,-0.06 0,-0.11 -0.01,-0.16 -0.03,-0.06 -0.09,-0.1 -0.15,-0.12 -0.05,-0.01 -0.11,0 -0.16,0.02 -0.05,0.02 -0.09,0.07 -0.11,0.15 v 0.02 c -0.33,-0.12 -0.57,-0.54 -0.54,-0.92 0.03,-0.32 0.25,-0.54 0.6,-0.6 0.1,0.23 0.29,0.46 0.55,0.68 0.07,0.06 0.14,0.07 0.21,0.05 0.08,-0.03 0.14,-0.1 0.16,-0.18 C 21.8,9.85 21.78,9.78 21.71,9.72 21.52,9.57 21.4,9.38 21.33,9.25 21.2,9.02 21.23,8.81 21.3,8.64 21.45,8.31 21.9,8.11 22.3,8.19 22.7,8.27 22.95,8.59 23,9.07 22.77,9.01 22.52,9 22.25,9.05 c -0.07,0.01 -0.11,0.04 -0.14,0.07 -0.04,0.04 -0.05,0.09 -0.05,0.15 0,0.08 0.04,0.16 0.1,0.2 0.04,0.03 0.1,0.04 0.17,0.03 0.09,-0.02 0.17,-0.02 0.27,-0.02 0.47,0 0.83,0.36 0.83,0.82 z m -7.27,2.08 c -1.12,0.15 -2.17,-0.7 -2.57,-1.5 0.8,-0.58 1.66,-1.08 2.56,-1.48 -0.61,0.99 -0.61,2.07 0,2.98 z m 0.02,-1.22 C 16.09,10.26 16.5,9.54 16.97,9.03 17.48,8.84 18.01,8.68 18.54,8.55 l 0.15,1.64 c 0,0 -0.69,-0.49 -0.82,-0.58 -0.11,-0.08 -0.22,-0.05 -0.29,0.01 -0.07,0.06 -0.11,0.17 -0.05,0.27 -0.29,0.28 -0.45,0.66 -0.45,1.06 0,0.81 0.66,1.48 1.48,1.48 0.11,0 0.22,-0.01 0.33,-0.04 l 0.08,0.89 C 17.55,13.4 16.3,12.32 16.18,11.12 Z m 3.03,-0.23 C 19.19,10.62 18.99,8.44 18.99,8.44 19.66,8.3 20.36,8.2 21.07,8.16 c -0.2,0.22 -0.31,0.48 -0.3,0.75 -0.51,0.08 -0.95,0.45 -0.95,1.1 0,0.65 0.44,1.18 0.87,1.3 l -0.95,3.84 c -0.3,-0.02 -0.61,-0.04 -0.93,-0.05 -0.53,-0.5 -0.68,-1.05 -0.73,-1.33 0.04,-0.03 0.08,-0.06 0.11,-0.09 0.36,0.07 0.71,0.08 1.06,0.02 0.05,0 0.11,-0.04 0.15,-0.09 0.03,-0.04 0.04,-0.09 0.04,-0.16 -0.02,-0.24 -0.15,-1.61 -0.15,-1.61 0,-0.05 -0.02,-0.1 -0.05,-0.13 -0.05,-0.05 -0.12,-0.08 -0.19,-0.07 -0.05,0 -0.11,0.03 -0.15,0.07 -0.04,0.04 -0.06,0.1 -0.06,0.18 v 0.06 c -0.09,0.03 -0.18,0.04 -0.28,0.04 -0.57,0 -1.03,-0.46 -1.03,-1.03 0,-0.3 0.13,-0.58 0.35,-0.78 l 0.85,0.6 v 0.16 c 0.02,0.05 0.04,0.1 0.06,0.13 0.04,0.05 0.11,0.08 0.18,0.08 0.07,0 0.13,-0.03 0.18,-0.08 0.03,-0.04 0.05,-0.09 0.04,-0.16 z m -6.39,2.19 c 0.76,0.84 2.09,1.17 3.26,1.17 0.61,0 1.17,-0.1 1.59,-0.26 0.06,0.28 0.2,0.69 0.52,1.1 -0.59,-0.01 -2.25,0.02 -2.57,0.02 -1.04,0 -1.98,-0.04 -2.85,-0.28 -0.11,-0.45 -0.13,-1.33 0.01,-1.76 h 0.03 z m 9.77,-1.57 c 0.26,0 0.5,-0.07 0.69,-0.18 0.03,0.27 0.14,0.54 0.32,0.79 l -1.09,1.17 c -0.08,-0.58 0,-1.19 0.07,-1.78 z m -10.23,1.44 c -0.15,0.48 -0.14,1.21 -0.07,1.7 -0.6,-0.26 -1.08,-0.65 -1.47,-1.19 0.21,-0.26 0.43,-0.51 0.65,-0.74 l 0.89,0.24 z m -1.2,16.33 c -0.37,0.37 -0.62,0.55 -1.26,0.6 0.07,-0.54 0.04,-1.03 -0.01,-1.7 0.36,0.45 0.79,0.8 1.27,1.1 z M 8.78,23.71 C 8.41,23.83 7.82,24.22 7.38,24.53 7.37,24.39 7.36,24.23 7.35,24.05 7.47,23.83 7.7,23.53 7.97,23.22 8.36,22.79 8.85,22.34 9.35,22.08 8.99,22.76 8.86,23.27 8.77,23.71 Z M 26.16,9.3 C 25.6,9.3 25.2,9.64 25.03,10.01 24.61,9.87 24.2,9.91 23.87,10.1 23.83,9.78 23.68,9.49 23.45,9.29 23.47,8.83 23.38,8.45 23.2,8.18 c 0.36,0.03 0.9,0.08 1.41,0.15 1.19,0.18 2.3,0.48 3.24,0.79 C 27.66,9.34 27.46,9.57 27.26,9.81 26.95,9.49 26.55,9.3 26.15,9.3 Z M 8.71,24.23 c -0.14,1.7 -0.2,2.02 -0.68,2.5 -0.08,0.08 -0.12,0.18 -0.09,0.26 0.03,0.08 0.12,0.13 0.24,0.13 0.46,0 0.76,-0.02 1,-0.07 0.07,0.15 0.15,0.29 0.23,0.42 0,0.19 0.02,0.44 0.04,0.7 0.04,0.66 0.09,1.48 -0.03,1.88 -0.02,0.08 -0.02,0.15 0.02,0.2 0.04,0.05 0.11,0.09 0.19,0.09 0.88,0 1.29,-0.17 1.93,-0.82 0.26,0.15 0.77,0.4 0.97,0.51 -0.74,0.72 -1.52,1.39 -2.32,2 C 8.64,29.93 7.75,27.88 7.44,25.06 7.73,24.85 8.35,24.42 8.71,24.23 Z M 31.55,9.31 c 0.13,0.38 0.54,0.59 0.92,0.46 l 0.17,0.49 c -0.25,0.19 -0.5,0.39 -0.73,0.58 L 30.62,10.57 30.85,8.6 c 0.31,-0.3 0.62,-0.59 0.94,-0.86 l 0.22,0.63 C 31.63,8.51 31.43,8.92 31.56,9.3 Z m -1.53,7.92 c 1.4,-1.07 1.97,-2.22 1.82,-3.74 0.33,-0.28 0.66,-0.55 0.98,-0.79 0.1,1.23 -0.09,2.4 -0.55,3.38 -0.49,1.05 -1.29,1.86 -2.3,2.34 0.04,-0.26 0.07,-0.78 0.05,-1.18 z m -9.53,18.58 c -1.23,0 -2.18,-1.01 -2.18,-2.18 0,-0.62 0.27,-1.23 0.73,-1.63 0.39,-0.34 0.89,-0.55 1.45,-0.55 1.18,0 2.18,0.93 2.18,2.18 0,1.25 -0.99,2.18 -2.18,2.18 z m -6.19,6.33 c -0.46,-0.15 -0.89,-0.35 -1.3,-0.6 1.92,-0.62 3.26,-1.77 3.88,-3.31 0.65,-1.61 0.47,-3.51 -0.52,-5.35 0.25,-0.23 0.5,-0.47 0.74,-0.71 1.34,2.35 1.35,5.09 0.35,6.99 -0.57,1.09 -1.5,2.11 -3.15,2.98 z M 23.08,31 c 0,0.41 -0.13,0.86 -0.38,1.21 -0.18,-0.27 -0.4,-0.51 -0.67,-0.71 0.07,-0.22 0.1,-0.36 0.1,-0.58 0,-0.34 -0.12,-0.66 -0.33,-0.9 -0.21,-0.24 -0.53,-0.38 -0.93,-0.38 -0.32,0 -0.64,0.12 -0.91,0.34 -0.06,-0.3 -0.1,-0.61 -0.11,-0.91 0.28,-0.34 0.57,-0.71 0.88,-1.13 0.15,0 0.31,0 0.46,0 l -0.05,0.36 c 0,0 -0.07,0 -0.1,0 -0.05,0 -0.11,0.01 -0.15,0.04 -0.07,0.04 -0.1,0.1 -0.1,0.18 0,0.07 0.02,0.14 0.07,0.18 0.04,0.03 0.08,0.05 0.14,0.05 0.6,0.02 1.11,0.26 1.49,0.69 0.38,0.43 0.57,1 0.57,1.57 z m -2,-3.5 c 0.26,-0.35 0.52,-0.71 0.78,-1.06 1.52,-0.47 2.59,-1.28 3.23,-2.4 0.53,-0.92 0.72,-2.04 0.52,-3.05 0.27,-0.4 0.51,-0.74 0.74,-1.06 0.25,0.87 0.34,1.77 0.17,2.75 -0.21,1.24 -0.83,2.4 -1.77,3.29 -0.93,0.87 -2.22,1.5 -3.66,1.54 z m 3.52,-3.53 c -0.47,0.78 -1.27,1.39 -2.29,1.83 0.5,-0.7 0.98,-1.41 1.4,-2.02 0.27,-0.4 1.28,-1.9 1.52,-2.24 0.06,0.91 -0.23,1.77 -0.63,2.43 z m -4.51,6.53 c 0.2,-0.23 0.47,-0.4 0.79,-0.4 0.25,0 0.47,0.1 0.62,0.27 0.12,0.14 0.19,0.34 0.19,0.58 0,0.11 -0.02,0.21 -0.05,0.32 -0.36,-0.17 -0.74,-0.26 -1.15,-0.26 -0.07,0 -0.15,0 -0.23,0.01 -0.06,-0.16 -0.12,-0.33 -0.17,-0.51 z m -0.28,0.59 c -0.29,0.08 -0.57,0.21 -0.82,0.38 -0.12,-0.29 -0.21,-0.61 -0.28,-1.02 0.24,-0.27 0.49,-0.57 0.74,-0.87 0.06,0.52 0.18,1.03 0.36,1.51 z m -2.39,0.75 c 0.29,-0.3 0.6,-0.63 0.91,-0.97 0.07,0.34 0.17,0.63 0.3,0.89 -0.31,0.31 -0.54,0.7 -0.67,1.12 -0.16,-0.4 -0.35,-0.76 -0.54,-1.05 z m -1.99,6.07 c 0.69,-1.29 0.64,-2.74 -0.14,-4.1 0.24,-0.19 0.48,-0.4 0.73,-0.62 0.9,1.73 1.05,3.54 0.39,4.99 -0.68,1.52 -1.96,2.46 -3.88,3.03 -0.36,-0.28 -0.65,-0.58 -0.88,-0.9 1.6,-0.12 3.05,-1.04 3.78,-2.4 z m -1.27,-0.43 c 0.49,-0.97 0.23,-2.01 -0.12,-2.73 0.29,-0.21 0.59,-0.43 0.89,-0.66 0.68,1.23 0.69,2.58 0.03,3.73 -0.71,1.24 -2.08,2.02 -3.57,2.05 -0.12,-0.26 -0.2,-0.52 -0.23,-0.77 1.7,-0.22 2.6,-0.82 3.01,-1.62 z m -1.48,-1.86 c 0.33,-0.19 0.66,-0.4 0.98,-0.61 0.35,0.66 0.68,2.11 -0.56,2.99 0.03,-0.56 -0.01,-1.14 -0.18,-1.69 -0.07,-0.25 -0.15,-0.46 -0.24,-0.68 z m -1.53,3.03 c 0.08,-0.7 0.54,-1.34 1.41,-1.9 0.1,0.49 0.12,0.99 0.06,1.52 -0.4,0.18 -0.9,0.31 -1.47,0.38 z M 31.41,13.87 c 0.02,1.11 -0.42,1.98 -1.43,2.82 -0.04,-0.37 -0.1,-0.76 -0.19,-1.17 0.54,-0.6 1.09,-1.16 1.63,-1.65 z M 27.01,21 c 1.24,-1.15 1.75,-2.46 1.63,-4.16 0.26,-0.32 0.51,-0.62 0.76,-0.91 0.33,1.73 0.16,3.04 -0.46,4.17 -0.47,0.86 -1.15,1.52 -1.92,2.09 0.03,-0.37 0.03,-0.85 -0.01,-1.2 z m -0.34,-1.54 c 0.3,-0.44 1.31,-1.77 1.55,-2.08 -0.04,1.26 -0.43,2.19 -1.29,3.07 -0.06,-0.33 -0.15,-0.66 -0.26,-0.99 z m 2.83,0.56 c 0.16,-0.34 0.28,-0.7 0.37,-1.08 2.2,-0.92 3.37,-2.94 3.42,-5.49 0.43,1.29 1.24,3.7 2.04,6.06 -1.58,-0.48 -3.76,-0.3 -5.83,0.5 z m -0.15,-4.68 c -1.1,1.21 -2.27,2.82 -3.13,4 -0.47,0.65 -1.84,2.65 -2.22,3.21 -0.79,1.16 -1.92,2.8 -2.49,3.59 -1.69,2.36 -3.25,4.26 -4.73,5.7 -0.9,0.88 -2.15,2.09 -4.29,3.36 -0.13,-0.26 -0.34,-0.6 -0.47,-0.79 5.05,-3.31 8.67,-8.9 11.08,-12.36 2.66,-3.82 5.57,-8.16 9.69,-11.34 l 0.4,1.16 c -0.23,0.15 -0.92,0.63 -1.81,1.41 -0.83,0.73 -1.54,1.51 -2.04,2.05 z M 17.38,27.48 c 1.83,-2.35 3.52,-5.04 5.16,-7.64 2.37,-3.77 4.83,-7.68 7.79,-10.72 l -0.18,1.56 c -0.01,0.13 -0.02,0.19 0.02,0.23 0.03,0.04 0.07,0.05 0.18,0.08 l 1.12,0.23 C 28,14.2 25.36,18.03 22.8,21.74 c -3.11,4.5 -6.33,9.16 -11.04,12.32 -0.18,-0.25 -0.37,-0.5 -0.54,-0.71 2.1,-1.32 4.11,-3.23 6.16,-5.86 z m 4.79,-7.92 c -0.28,0.44 -0.55,0.88 -0.83,1.32 -3.09,4.89 -6.21,9.49 -10.4,12.11 L 10.48,32.4 c 1.56,-1.2 2.84,-2.48 3.83,-3.56 1.03,-1.13 2.57,-3 3.98,-5.07 1.47,-2.15 2.44,-3.67 3.57,-5.45 1.91,-3.01 3.69,-5.75 5.6,-8.05 1.08,-1.3 2.43,-2.75 3.85,-3.9 l 0.31,0.92 c -3.98,3.43 -6.98,8.34 -9.46,12.27 z M 21.14,6.21 c -0.28,0.01 -0.57,0.04 -0.87,0.07 0,0 0.61,-3.96 0.67,-4.37 0.01,-0.08 0,-0.16 -0.03,-0.21 C 20.87,1.64 20.8,1.6 20.73,1.6 20.66,1.6 20.62,1.62 20.58,1.65 20.53,1.7 20.51,1.77 20.49,1.9 20.44,2.24 19.81,6.33 19.81,6.33 19.44,6.38 19.07,6.45 18.7,6.53 L 19.09,0.8 C 20.25,0.59 21.44,0.47 22.62,0.45 L 21.14,6.2 Z m 4.58,0.94 C 25.24,7.24 24.85,7.48 24.55,7.86 23.83,7.75 22.98,7.68 21.99,7.68 c -3.69,0 -6.74,1.31 -8.95,3.01 -2.08,1.6 -3.51,3.52 -4.49,5.46 -1.15,2.31 -1.69,4.74 -1.69,6.9 0,2.89 0.63,5.85 2.42,8.46 C 9.07,32 8.91,32.55 8.89,33.04 7.28,30.56 6.4,28.1 6,25.78 5.3,21.71 6.22,17.68 8.25,14.47 c 2.45,-3.89 5.66,-5.71 7.62,-6.56 1.97,-0.86 4.07,-1.26 6.05,-1.26 1.46,0 2.74,0.22 3.79,0.5 z M 8,32.43 c 0.18,0.3 0.36,0.6 0.54,0.89 0,0 -2.8,2.77 -2.9,2.87 -0.05,0.05 -0.07,0.1 -0.08,0.16 0,0.07 0.01,0.13 0.06,0.18 0.04,0.04 0.1,0.06 0.16,0.06 0.06,0 0.13,-0.03 0.18,-0.08 0.12,-0.12 2.84,-2.81 2.84,-2.81 0.18,0.26 0.36,0.53 0.56,0.79 L 6.37,38.07 C 5.57,37.18 4.84,36.24 4.2,35.28 L 8.01,32.43 Z M 6.72,29.85 c 0.12,0.28 0.24,0.55 0.36,0.81 0,0 -3.06,1.87 -3.21,1.96 -0.07,0.04 -0.11,0.09 -0.13,0.15 -0.02,0.06 -0.02,0.13 0.02,0.19 0.04,0.06 0.1,0.1 0.17,0.1 0.05,0 0.11,-0.01 0.17,-0.05 0.15,-0.09 3.17,-1.93 3.17,-1.93 0.16,0.32 0.33,0.65 0.51,0.96 L 3.95,34.9 C 3.33,33.93 2.78,32.92 2.33,31.9 l 4.4,-2.04 z M 5.8,27.01 c 0.09,0.38 0.19,0.77 0.31,1.15 0,0 -3.44,1.01 -3.58,1.05 -0.06,0.02 -0.11,0.05 -0.14,0.09 -0.04,0.05 -0.06,0.12 -0.03,0.2 0.02,0.07 0.07,0.12 0.13,0.14 0.05,0.02 0.12,0.02 0.18,0 0.18,-0.05 3.58,-1.05 3.58,-1.05 0.09,0.28 0.19,0.56 0.3,0.84 L 2.14,31.48 C 1.67,30.36 1.29,29.2 1.02,28.03 Z M 6.73,16.43 c 0,0 -3.11,-1.91 -3.26,-2 -0.06,-0.04 -0.13,-0.05 -0.18,-0.05 -0.07,0 -0.12,0.05 -0.16,0.11 -0.03,0.05 -0.04,0.11 -0.02,0.16 0.02,0.06 0.06,0.12 0.13,0.16 0.09,0.05 3.32,2.04 3.32,2.04 -0.12,0.3 -0.24,0.61 -0.34,0.91 L 1.86,15.58 c 0.39,-1.06 0.87,-2.11 1.41,-3.1 L 7.2,15.47 C 7.04,15.78 6.88,16.1 6.74,16.43 Z M 18.24,6.64 c -0.31,0.08 -0.63,0.17 -0.95,0.27 0,0 -0.14,-4.31 -0.14,-4.42 0,-0.08 -0.02,-0.15 -0.06,-0.2 -0.04,-0.04 -0.1,-0.07 -0.17,-0.07 -0.07,0 -0.13,0.03 -0.16,0.08 -0.04,0.05 -0.06,0.1 -0.05,0.19 0,0.26 0.15,4.57 0.15,4.57 -0.32,0.11 -0.64,0.23 -0.95,0.36 L 15.17,1.93 C 16.3,1.49 17.47,1.15 18.65,0.91 L 18.26,6.65 Z M 14.57,8.03 13.59,3.91 C 13.57,3.84 13.54,3.79 13.49,3.75 13.44,3.71 13.37,3.7 13.3,3.72 13.23,3.74 13.19,3.77 13.16,3.83 13.13,3.88 13.13,3.96 13.15,4.03 l 1.01,4.21 c -0.27,0.15 -0.54,0.31 -0.8,0.48 L 11.65,3.64 c 0.98,-0.6 2.02,-1.12 3.07,-1.55 l 0.74,5.5 c -0.3,0.13 -0.6,0.28 -0.89,0.43 z m -2.5,1.6 c 0,0 -1.61,-3.71 -1.67,-3.84 C 10.37,5.72 10.33,5.68 10.27,5.66 10.21,5.64 10.16,5.64 10.1,5.66 10.05,5.68 10.01,5.72 9.98,5.77 9.95,5.83 9.95,5.9 9.98,5.97 l 1.71,3.95 c -0.23,0.19 -0.46,0.38 -0.67,0.58 L 8.42,6.02 C 9.31,5.24 10.26,4.53 11.25,3.9 l 1.71,5.09 c -0.31,0.2 -0.61,0.42 -0.9,0.64 z M 9.96,11.55 7.57,8.27 C 7.53,8.22 7.48,8.18 7.42,8.17 7.36,8.16 7.3,8.17 7.24,8.21 7.19,8.25 7.16,8.3 7.15,8.36 c 0,0.06 0,0.13 0.05,0.19 L 9.64,11.9 C 9.42,12.15 9.21,12.4 9.01,12.65 L 5.71,8.84 C 6.44,7.95 7.23,7.11 8.08,6.34 l 2.6,4.48 c -0.26,0.24 -0.5,0.49 -0.74,0.74 z m -1.87,2.37 c 0,0 -2.48,-2.37 -2.79,-2.68 C 5.25,11.19 5.2,11.16 5.15,11.15 5.08,11.14 5.01,11.16 4.96,11.21 4.91,11.26 4.89,11.33 4.9,11.39 c 0.01,0.06 0.04,0.12 0.09,0.16 0.22,0.21 2.86,2.75 2.86,2.75 -0.15,0.25 -0.3,0.5 -0.44,0.75 L 3.49,12.06 c 0.57,-1 1.23,-1.98 1.95,-2.89 l 3.3,3.82 C 8.51,13.3 8.29,13.61 8.09,13.92 Z M 5.82,19.1 c 0,0 -3.42,-1.08 -3.57,-1.12 -0.07,-0.02 -0.14,-0.02 -0.2,0 -0.06,0.02 -0.11,0.07 -0.13,0.13 -0.02,0.06 -0.01,0.12 0.01,0.18 0.02,0.06 0.08,0.1 0.15,0.12 0.26,0.08 3.62,1.14 3.62,1.14 -0.07,0.32 -0.13,0.63 -0.18,0.94 L 0.77,19.51 c 0.21,-1.18 0.51,-2.36 0.91,-3.5 l 4.38,2.18 C 5.96,18.5 5.88,18.81 5.8,19.1 Z m -0.46,4.92 c 0.02,0.37 0.05,0.74 0.1,1.11 0,0 -3.65,0.34 -3.76,0.35 -0.07,0 -0.13,0.03 -0.17,0.07 -0.05,0.05 -0.07,0.11 -0.07,0.18 0,0.06 0.03,0.11 0.08,0.15 0.05,0.04 0.12,0.06 0.2,0.05 0.24,-0.02 3.78,-0.35 3.78,-0.35 0.05,0.33 0.11,0.67 0.18,0.99 L 0.92,27.59 C 0.67,26.39 0.52,25.15 0.48,23.92 Z m 0,-1.87 c 0,0 -3.59,-0.4 -3.71,-0.41 -0.07,0 -0.14,0 -0.19,0.04 -0.06,0.03 -0.1,0.09 -0.1,0.15 0,0.07 0,0.12 0.05,0.17 0.04,0.05 0.11,0.08 0.19,0.09 0.13,0.02 3.75,0.41 3.75,0.41 0,0.32 0,0.65 0,0.97 L 0.48,23.47 C 0.47,22.3 0.55,21.11 0.73,19.94 l 4.76,0.98 C 5.44,21.33 5.4,21.74 5.38,22.14 Z M 9.8,39.09 c -0.11,-1.31 0.68,-2.59 2.29,-3.68 0.15,0.3 0.27,0.59 0.37,0.88 -1.29,0.78 -1.8,1.65 -1.8,2.53 0,1.04 0.74,2.04 1.66,2.75 0.66,0.51 1.29,0.81 1.9,1.01 0.07,0.02 0.11,0.02 0.13,0.02 0.03,0 0.05,-0.01 0.1,-0.04 1.51,-0.77 2.64,-1.73 3.43,-3.24 0.51,-0.96 0.83,-2.36 0.7,-3.9 0.3,0.32 0.67,0.56 1.08,0.7 0.04,1.37 -0.39,2.9 -1.14,4.14 -0.65,1.08 -1.46,1.92 -2.55,2.61 -0.68,0.43 -1.43,0.72 -1.74,0.83 C 11.55,42.45 9.94,40.77 9.8,39.09 Z m 6.33,4.2 c 1.83,0.35 5.41,1.46 7.44,2.25 -0.11,0 -0.24,0 -0.33,0 -3.01,0 -5.99,-0.56 -8.43,-1.58 0.61,-0.26 0.89,-0.41 1.32,-0.67 z m 19.08,-9.23 z"
     id="path3" />
  <path
     class="cls-1"
     d="m 29.17,12.38 c 0.25,0 0.45,-0.2 0.45,-0.45 0,-0.25 -0.2,-0.45 -0.45,-0.45 -0.25,0 -0.45,0.2 -0.45,0.45 0,0.25 0.2,0.45 0.45,0.45 z"
     id="path4" />
  <path
     class="cls-1"
     d="m 27.03,14.99 c 0.2,0 0.36,-0.16 0.36,-0.36 0,-0.2 -0.16,-0.36 -0.36,-0.36 -0.2,0 -0.36,0.16 -0.36,0.36 0,0.2 0.16,0.36 0.36,0.36 z"
     id="path5" />
  <path
     class="cls-1"
     d="m 28.08,13.64 c 0.23,0 0.41,-0.18 0.41,-0.41 0,-0.23 -0.18,-0.41 -0.41,-0.41 -0.23,0 -0.41,0.18 -0.41,0.41 0,0.23 0.18,0.41 0.41,0.41 z"
     id="path6" />
  <path
     class="cls-1"
     d="m 14.93,11.29 c 0.24,0 0.44,-0.2 0.44,-0.44 0,-0.24 -0.2,-0.44 -0.44,-0.44 -0.24,0 -0.44,0.2 -0.44,0.44 0,0.24 0.2,0.44 0.44,0.44 z"
     id="path7" />
  <path
     class="cls-1"
     d="m 32.91,21.53 c -1.02,0.01 -1.92,0.13 -2.68,0.37 -0.41,0.13 -0.89,0.33 -1.25,0.54 -0.45,0.26 -0.81,0.55 -1.05,0.82 -0.1,0.12 -0.06,0.25 0.01,0.32 0.08,0.07 0.24,0.09 0.34,-0.04 0.66,0.27 1.52,0.43 2.48,0.46 0.63,0.02 1.42,-0.04 1.74,-0.11 0.39,-0.08 0.64,-0.61 0.59,-1.23 -0.01,-0.13 -0.04,-0.26 -0.08,-0.38 0.28,-0.09 0.58,-0.23 0.58,-0.48 0,-0.09 -0.04,-0.16 -0.11,-0.2 -0.08,-0.04 -0.27,-0.06 -0.56,-0.06 z m -2.08,0.67 c 0.27,-0.06 0.54,-0.11 0.82,-0.14 -0.09,0.21 -0.13,0.47 -0.11,0.73 0.02,0.27 0.11,0.52 0.25,0.72 -0.24,0.02 -0.52,0.03 -0.81,0.03 -0.15,-0.39 -0.19,-0.8 -0.14,-1.35 z m -2.17,0.99 c 0.48,-0.37 1.06,-0.66 1.72,-0.86 -0.03,0.46 0.01,0.85 0.12,1.21 -0.63,-0.04 -1.26,-0.16 -1.84,-0.35 z"
     id="path8" />
</svg>